SplineFontDB: 3.0
FontName: CodifiedMorse-Regular
FullName: CodifiedMorse
FamilyName: CodifiedMorse
Weight: Regular
Copyright: Copyright (c) 2017, Guillermo Robles, SIL Open Font License, version 1.1
UComments: "2017-8-12: Created with FontForge (http://fontforge.org)"
Version: 0.1
ItalicAngle: 0
UnderlinePosition: -102.4
UnderlineWidth: 51.2
Ascent: 819
Descent: 205
InvalidEm: 0
LayerCount: 2
Layer: 0 0 "Back" 1
Layer: 1 0 "Fore" 0
XUID: [1021 514 -681402365 13443938]
StyleMap: 0x0000
FSType: 0
OS2Version: 0
OS2_WeightWidthSlopeOnly: 0
OS2_UseTypoMetrics: 1
CreationTime: 1502546467
ModificationTime: 1502566333
OS2TypoAscent: 0
OS2TypoAOffset: 1
OS2TypoDescent: 0
OS2TypoDOffset: 1
OS2TypoLinegap: 92
OS2WinAscent: 0
OS2WinAOffset: 1
OS2WinDescent: 0
OS2WinDOffset: 1
HheadAscent: 0
HheadAOffset: 1
HheadDescent: 0
HheadDOffset: 1
MarkAttachClasses: 1
DEI: 91125
Encoding: ISO8859-1
UnicodeInterp: none
NameList: AGL For New Fonts
DisplaySize: -48
AntiAlias: 1
FitToEm: 0
WinInfo: 0 27 10
BeginPrivate: 0
EndPrivate
Grid
-50 500 m 0
 50 500 l 1024
EndSplineSet
BeginChars: 256 69

StartChar: A
Encoding: 65 65 0
Width: 1700
VWidth: 0
Flags: HW
LayerCount: 2
Fore
SplineSet
500 500 m 1
 1100 500 l 1
 1100 300 l 1
 500 300 l 1
 500 500 l 1
100 400 m 0
 100 455 145 500 200 500 c 0
 255 500 300 455 300 400 c 0
 300 345 255 300 200 300 c 0
 145 300 100 345 100 400 c 0
1700 819 m 1
 1300 0 l 1
 1200 0 l 1
 1600 819 l 1
 1700 819 l 1
EndSplineSet
Validated: 1
EndChar

StartChar: B
Encoding: 66 66 1
Width: 2500
VWidth: 0
Flags: HW
LayerCount: 2
Fore
SplineSet
2500 819 m 1
 2100 0 l 1
 2000 0 l 1
 2400 819 l 1
 2500 819 l 1
1300 400 m 0
 1300 455 1345 500 1400 500 c 0
 1455 500 1500 455 1500 400 c 0
 1500 345 1455 300 1400 300 c 0
 1345 300 1300 345 1300 400 c 0
900 400 m 0
 900 455 945 500 1000 500 c 0
 1055 500 1100 455 1100 400 c 0
 1100 345 1055 300 1000 300 c 0
 945 300 900 345 900 400 c 0
100 500 m 1
 700 500 l 1
 700 300 l 1
 100 300 l 1
 100 500 l 1
1700 400 m 0
 1700 455 1745 500 1800 500 c 0
 1855 500 1900 455 1900 400 c 0
 1900 345 1855 300 1800 300 c 0
 1745 300 1700 345 1700 400 c 0
EndSplineSet
Validated: 1
EndChar

StartChar: C
Encoding: 67 67 2
Width: 2900
VWidth: 0
Flags: HW
LayerCount: 2
Fore
SplineSet
2900 819 m 1
 2500 0 l 1
 2400 0 l 1
 2800 819 l 1
 2900 819 l 1
2100 400 m 0
 2100 455 2145 500 2200 500 c 0
 2255 500 2300 455 2300 400 c 0
 2300 345 2255 300 2200 300 c 0
 2145 300 2100 345 2100 400 c 0
1300 500 m 1
 1900 500 l 1
 1900 300 l 1
 1300 300 l 1
 1300 500 l 1
900 400 m 0
 900 455 945 500 1000 500 c 0
 1055 500 1100 455 1100 400 c 0
 1100 345 1055 300 1000 300 c 0
 945 300 900 345 900 400 c 0
100 500 m 1
 700 500 l 1
 700 300 l 1
 100 300 l 1
 100 500 l 1
EndSplineSet
Validated: 1
EndChar

StartChar: D
Encoding: 68 68 3
Width: 2100
VWidth: 0
Flags: HW
LayerCount: 2
Fore
SplineSet
2100 819 m 1
 1700 0 l 1
 1600 0 l 1
 2000 819 l 1
 2100 819 l 1
1300 400 m 0
 1300 455 1345 500 1400 500 c 0
 1455 500 1500 455 1500 400 c 0
 1500 345 1455 300 1400 300 c 0
 1345 300 1300 345 1300 400 c 0
100 500 m 1
 700 500 l 1
 700 300 l 1
 100 300 l 1
 100 500 l 1
900 400 m 0
 900 455 945 500 1000 500 c 0
 1055 500 1100 455 1100 400 c 0
 1100 345 1055 300 1000 300 c 0
 945 300 900 345 900 400 c 0
EndSplineSet
Validated: 1
EndChar

StartChar: E
Encoding: 69 69 4
Width: 900
VWidth: 0
Flags: HW
LayerCount: 2
Fore
SplineSet
900 819 m 1
 500 0 l 1
 400 0 l 1
 800 819 l 1
 900 819 l 1
100 400 m 0
 100 455 145 500 200 500 c 0
 255 500 300 455 300 400 c 0
 300 345 255 300 200 300 c 0
 145 300 100 345 100 400 c 0
EndSplineSet
Validated: 1
EndChar

StartChar: F
Encoding: 70 70 5
Width: 2500
VWidth: 0
Flags: HW
LayerCount: 2
Fore
SplineSet
2500 819 m 1
 2100 0 l 1
 2000 0 l 1
 2400 819 l 1
 2500 819 l 1
500 400 m 0
 500 455 545 500 600 500 c 0
 655 500 700 455 700 400 c 0
 700 345 655 300 600 300 c 0
 545 300 500 345 500 400 c 0
100 400 m 0
 100 455 145 500 200 500 c 0
 255 500 300 455 300 400 c 0
 300 345 255 300 200 300 c 0
 145 300 100 345 100 400 c 0
900 500 m 1
 1500 500 l 1
 1500 300 l 1
 900 300 l 1
 900 500 l 1
1700 400 m 0
 1700 455 1745 500 1800 500 c 0
 1855 500 1900 455 1900 400 c 0
 1900 345 1855 300 1800 300 c 0
 1745 300 1700 345 1700 400 c 0
EndSplineSet
Validated: 1
EndChar

StartChar: G
Encoding: 71 71 6
Width: 2500
VWidth: 0
Flags: HW
LayerCount: 2
Fore
SplineSet
2500 819 m 1
 2100 0 l 1
 2000 0 l 1
 2400 819 l 1
 2500 819 l 1
900 500 m 1
 1500 500 l 1
 1500 300 l 1
 900 300 l 1
 900 500 l 1
100 500 m 1
 700 500 l 1
 700 300 l 1
 100 300 l 1
 100 500 l 1
1700 400 m 0
 1700 455 1745 500 1800 500 c 0
 1855 500 1900 455 1900 400 c 0
 1900 345 1855 300 1800 300 c 0
 1745 300 1700 345 1700 400 c 0
EndSplineSet
Validated: 1
EndChar

StartChar: H
Encoding: 72 72 7
Width: 2100
VWidth: 0
Flags: HW
LayerCount: 2
Fore
SplineSet
2100 819 m 1
 1700 0 l 1
 1600 0 l 1
 2000 819 l 1
 2100 819 l 1
1300 400 m 0
 1300 455 1345 500 1400 500 c 0
 1455 500 1500 455 1500 400 c 0
 1500 345 1455 300 1400 300 c 0
 1345 300 1300 345 1300 400 c 0
900 400 m 0
 900 455 945 500 1000 500 c 0
 1055 500 1100 455 1100 400 c 0
 1100 345 1055 300 1000 300 c 0
 945 300 900 345 900 400 c 0
500 400 m 0
 500 455 545 500 600 500 c 0
 655 500 700 455 700 400 c 0
 700 345 655 300 600 300 c 0
 545 300 500 345 500 400 c 0
100 400 m 0
 100 455 145 500 200 500 c 0
 255 500 300 455 300 400 c 0
 300 345 255 300 200 300 c 0
 145 300 100 345 100 400 c 0
EndSplineSet
Validated: 1
EndChar

StartChar: J
Encoding: 74 74 8
Width: 3300
VWidth: 0
Flags: HW
LayerCount: 2
Fore
SplineSet
3300 819 m 1
 2900 0 l 1
 2800 0 l 1
 3200 819 l 1
 3300 819 l 1
2100 500 m 1
 2700 500 l 1
 2700 300 l 1
 2100 300 l 1
 2100 500 l 1
1300 500 m 1
 1900 500 l 1
 1900 300 l 1
 1300 300 l 1
 1300 500 l 1
500 500 m 1
 1100 500 l 1
 1100 300 l 1
 500 300 l 1
 500 500 l 1
100 400 m 0
 100 455 145 500 200 500 c 0
 255 500 300 455 300 400 c 0
 300 345 255 300 200 300 c 0
 145 300 100 345 100 400 c 0
EndSplineSet
Validated: 1
EndChar

StartChar: I
Encoding: 73 73 9
Width: 1300
VWidth: 0
Flags: HW
LayerCount: 2
Fore
SplineSet
1300 819 m 1
 900 0 l 1
 800 0 l 1
 1200 819 l 1
 1300 819 l 1
500 400 m 0
 500 455 545 500 600 500 c 0
 655 500 700 455 700 400 c 0
 700 345 655 300 600 300 c 0
 545 300 500 345 500 400 c 0
100 400 m 0
 100 455 145 500 200 500 c 0
 255 500 300 455 300 400 c 0
 300 345 255 300 200 300 c 0
 145 300 100 345 100 400 c 0
EndSplineSet
Validated: 1
EndChar

StartChar: L
Encoding: 76 76 10
Width: 2500
VWidth: 0
Flags: HW
LayerCount: 2
Fore
SplineSet
2500 819 m 1
 2100 0 l 1
 2000 0 l 1
 2400 819 l 1
 2500 819 l 1
1700 400 m 0
 1700 455 1745 500 1800 500 c 0
 1855 500 1900 455 1900 400 c 0
 1900 345 1855 300 1800 300 c 0
 1745 300 1700 345 1700 400 c 0
100 400 m 0
 100 455 145 500 200 500 c 0
 255 500 300 455 300 400 c 0
 300 345 255 300 200 300 c 0
 145 300 100 345 100 400 c 0
500 500 m 1
 1100 500 l 1
 1100 300 l 1
 500 300 l 1
 500 500 l 1
1300 400 m 0
 1300 455 1345 500 1400 500 c 0
 1455 500 1500 455 1500 400 c 0
 1500 345 1455 300 1400 300 c 0
 1345 300 1300 345 1300 400 c 0
EndSplineSet
Validated: 1
EndChar

StartChar: K
Encoding: 75 75 11
Width: 2500
VWidth: 0
Flags: HW
LayerCount: 2
Fore
SplineSet
2500 819 m 1
 2100 0 l 1
 2000 0 l 1
 2400 819 l 1
 2500 819 l 1
100 500 m 1
 700 500 l 1
 700 300 l 1
 100 300 l 1
 100 500 l 1
1300 500 m 1
 1900 500 l 1
 1900 300 l 1
 1300 300 l 1
 1300 500 l 1
900 400 m 0
 900 455 945 500 1000 500 c 0
 1055 500 1100 455 1100 400 c 0
 1100 345 1055 300 1000 300 c 0
 945 300 900 345 900 400 c 0
EndSplineSet
Validated: 1
EndChar

StartChar: M
Encoding: 77 77 12
Width: 2100
VWidth: 0
Flags: HW
LayerCount: 2
Fore
SplineSet
2100 819 m 1
 1700 0 l 1
 1600 0 l 1
 2000 819 l 1
 2100 819 l 1
900 500 m 1
 1500 500 l 1
 1500 300 l 1
 900 300 l 1
 900 500 l 1
100 500 m 1
 700 500 l 1
 700 300 l 1
 100 300 l 1
 100 500 l 1
EndSplineSet
Validated: 1
EndChar

StartChar: N
Encoding: 78 78 13
Width: 1700
VWidth: 0
Flags: HW
LayerCount: 2
Fore
SplineSet
1700 819 m 1
 1300 0 l 1
 1200 0 l 1
 1600 819 l 1
 1700 819 l 1
100 500 m 1
 700 500 l 1
 700 300 l 1
 100 300 l 1
 100 500 l 1
900 400 m 0
 900 455 945 500 1000 500 c 0
 1055 500 1100 455 1100 400 c 0
 1100 345 1055 300 1000 300 c 0
 945 300 900 345 900 400 c 0
EndSplineSet
Validated: 1
EndChar

StartChar: O
Encoding: 79 79 14
Width: 2900
VWidth: 0
Flags: HW
LayerCount: 2
Fore
SplineSet
2900 819 m 1
 2500 0 l 1
 2400 0 l 1
 2800 819 l 1
 2900 819 l 1
1700 500 m 1
 2300 500 l 1
 2300 300 l 1
 1700 300 l 1
 1700 500 l 1
900 500 m 1
 1500 500 l 1
 1500 300 l 1
 900 300 l 1
 900 500 l 1
100 500 m 1
 700 500 l 1
 700 300 l 1
 100 300 l 1
 100 500 l 1
EndSplineSet
Validated: 1
EndChar

StartChar: P
Encoding: 80 80 15
Width: 2900
VWidth: 0
Flags: HW
LayerCount: 2
Fore
SplineSet
2900 819 m 1
 2500 0 l 1
 2400 0 l 1
 2800 819 l 1
 2900 819 l 1
2100 400 m 0
 2100 455 2145 500 2200 500 c 0
 2255 500 2300 455 2300 400 c 0
 2300 345 2255 300 2200 300 c 0
 2145 300 2100 345 2100 400 c 0
1300 500 m 1
 1900 500 l 1
 1900 300 l 1
 1300 300 l 1
 1300 500 l 1
500 500 m 1
 1100 500 l 1
 1100 300 l 1
 500 300 l 1
 500 500 l 1
100 400 m 0
 100 455 145 500 200 500 c 0
 255 500 300 455 300 400 c 0
 300 345 255 300 200 300 c 0
 145 300 100 345 100 400 c 0
EndSplineSet
Validated: 1
EndChar

StartChar: Q
Encoding: 81 81 16
Width: 3300
VWidth: 0
Flags: HW
LayerCount: 2
Fore
SplineSet
3300 819 m 1
 2900 0 l 1
 2800 0 l 1
 3200 819 l 1
 3300 819 l 1
2100 500 m 1
 2700 500 l 1
 2700 300 l 1
 2100 300 l 1
 2100 500 l 1
900 500 m 1
 1500 500 l 1
 1500 300 l 1
 900 300 l 1
 900 500 l 1
100 500 m 1
 700 500 l 1
 700 300 l 1
 100 300 l 1
 100 500 l 1
1700 400 m 0
 1700 455 1745 500 1800 500 c 0
 1855 500 1900 455 1900 400 c 0
 1900 345 1855 300 1800 300 c 0
 1745 300 1700 345 1700 400 c 0
EndSplineSet
Validated: 1
EndChar

StartChar: R
Encoding: 82 82 17
Width: 2100
VWidth: 0
Flags: HW
LayerCount: 2
Fore
SplineSet
2100 819 m 1
 1700 0 l 1
 1600 0 l 1
 2000 819 l 1
 2100 819 l 1
1300 400 m 0
 1300 455 1345 500 1400 500 c 0
 1455 500 1500 455 1500 400 c 0
 1500 345 1455 300 1400 300 c 0
 1345 300 1300 345 1300 400 c 0
500 500 m 1
 1100 500 l 1
 1100 300 l 1
 500 300 l 1
 500 500 l 1
100 400 m 0
 100 455 145 500 200 500 c 0
 255 500 300 455 300 400 c 0
 300 345 255 300 200 300 c 0
 145 300 100 345 100 400 c 0
EndSplineSet
Validated: 1
EndChar

StartChar: S
Encoding: 83 83 18
Width: 1700
VWidth: 0
Flags: HW
LayerCount: 2
Fore
SplineSet
1700 819 m 1
 1300 0 l 1
 1200 0 l 1
 1600 819 l 1
 1700 819 l 1
900 400 m 0
 900 455 945 500 1000 500 c 0
 1055 500 1100 455 1100 400 c 0
 1100 345 1055 300 1000 300 c 0
 945 300 900 345 900 400 c 0
500 400 m 0
 500 455 545 500 600 500 c 0
 655 500 700 455 700 400 c 0
 700 345 655 300 600 300 c 0
 545 300 500 345 500 400 c 0
100 400 m 0
 100 455 145 500 200 500 c 0
 255 500 300 455 300 400 c 0
 300 345 255 300 200 300 c 0
 145 300 100 345 100 400 c 0
EndSplineSet
Validated: 1
EndChar

StartChar: T
Encoding: 84 84 19
Width: 1300
VWidth: 0
Flags: HW
LayerCount: 2
Fore
SplineSet
1300 819 m 1
 900 0 l 1
 800 0 l 1
 1200 819 l 1
 1300 819 l 1
100 500 m 1
 700 500 l 1
 700 300 l 1
 100 300 l 1
 100 500 l 1
EndSplineSet
Validated: 1
EndChar

StartChar: U
Encoding: 85 85 20
Width: 2100
VWidth: 0
Flags: HW
LayerCount: 2
Fore
SplineSet
2100 819 m 1
 1700 0 l 1
 1600 0 l 1
 2000 819 l 1
 2100 819 l 1
500 400 m 0
 500 455 545 500 600 500 c 0
 655 500 700 455 700 400 c 0
 700 345 655 300 600 300 c 0
 545 300 500 345 500 400 c 0
900 500 m 1
 1500 500 l 1
 1500 300 l 1
 900 300 l 1
 900 500 l 1
100 400 m 0
 100 455 145 500 200 500 c 0
 255 500 300 455 300 400 c 0
 300 345 255 300 200 300 c 0
 145 300 100 345 100 400 c 0
EndSplineSet
Validated: 1
EndChar

StartChar: V
Encoding: 86 86 21
Width: 2500
VWidth: 0
Flags: HW
LayerCount: 2
Fore
SplineSet
2500 819 m 1
 2100 0 l 1
 2000 0 l 1
 2400 819 l 1
 2500 819 l 1
500 400 m 0
 500 455 545 500 600 500 c 0
 655 500 700 455 700 400 c 0
 700 345 655 300 600 300 c 0
 545 300 500 345 500 400 c 0
900 400 m 0
 900 455 945 500 1000 500 c 0
 1055 500 1100 455 1100 400 c 0
 1100 345 1055 300 1000 300 c 0
 945 300 900 345 900 400 c 0
1300 500 m 1
 1900 500 l 1
 1900 300 l 1
 1300 300 l 1
 1300 500 l 1
100 400 m 0
 100 455 145 500 200 500 c 0
 255 500 300 455 300 400 c 0
 300 345 255 300 200 300 c 0
 145 300 100 345 100 400 c 0
EndSplineSet
Validated: 1
EndChar

StartChar: W
Encoding: 87 87 22
Width: 2500
VWidth: 0
Flags: HW
LayerCount: 2
Fore
SplineSet
2500 819 m 1
 2100 0 l 1
 2000 0 l 1
 2400 819 l 1
 2500 819 l 1
1300 500 m 1
 1900 500 l 1
 1900 300 l 1
 1300 300 l 1
 1300 500 l 1
500 500 m 1
 1100 500 l 1
 1100 300 l 1
 500 300 l 1
 500 500 l 1
100 400 m 0
 100 455 145 500 200 500 c 0
 255 500 300 455 300 400 c 0
 300 345 255 300 200 300 c 0
 145 300 100 345 100 400 c 0
EndSplineSet
Validated: 1
EndChar

StartChar: X
Encoding: 88 88 23
Width: 2900
VWidth: 0
Flags: HW
LayerCount: 2
Fore
SplineSet
2900 819 m 1
 2500 0 l 1
 2400 0 l 1
 2800 819 l 1
 2900 819 l 1
900 400 m 0
 900 455 945 500 1000 500 c 0
 1055 500 1100 455 1100 400 c 0
 1100 345 1055 300 1000 300 c 0
 945 300 900 345 900 400 c 0
100 500 m 1
 700 500 l 1
 700 300 l 1
 100 300 l 1
 100 500 l 1
1700 500 m 1
 2300 500 l 1
 2300 300 l 1
 1700 300 l 1
 1700 500 l 1
1300 400 m 0
 1300 455 1345 500 1400 500 c 0
 1455 500 1500 455 1500 400 c 0
 1500 345 1455 300 1400 300 c 0
 1345 300 1300 345 1300 400 c 0
EndSplineSet
Validated: 1
EndChar

StartChar: Y
Encoding: 89 89 24
Width: 3300
VWidth: 0
Flags: HW
LayerCount: 2
Fore
SplineSet
3300 819 m 1
 2900 0 l 1
 2800 0 l 1
 3200 819 l 1
 3300 819 l 1
2100 500 m 1
 2700 500 l 1
 2700 300 l 1
 2100 300 l 1
 2100 500 l 1
900 400 m 0
 900 455 945 500 1000 500 c 0
 1055 500 1100 455 1100 400 c 0
 1100 345 1055 300 1000 300 c 0
 945 300 900 345 900 400 c 0
100 500 m 1
 700 500 l 1
 700 300 l 1
 100 300 l 1
 100 500 l 1
1300 500 m 1
 1900 500 l 1
 1900 300 l 1
 1300 300 l 1
 1300 500 l 1
EndSplineSet
Validated: 1
EndChar

StartChar: Z
Encoding: 90 90 25
Width: 2900
VWidth: 0
Flags: HW
LayerCount: 2
Fore
SplineSet
2900 819 m 1
 2500 0 l 1
 2400 0 l 1
 2800 819 l 1
 2900 819 l 1
2100 400 m 0
 2100 455 2145 500 2200 500 c 0
 2255 500 2300 455 2300 400 c 0
 2300 345 2255 300 2200 300 c 0
 2145 300 2100 345 2100 400 c 0
100 500 m 1
 700 500 l 1
 700 300 l 1
 100 300 l 1
 100 500 l 1
900 500 m 1
 1500 500 l 1
 1500 300 l 1
 900 300 l 1
 900 500 l 1
1700 400 m 0
 1700 455 1745 500 1800 500 c 0
 1855 500 1900 455 1900 400 c 0
 1900 345 1855 300 1800 300 c 0
 1745 300 1700 345 1700 400 c 0
EndSplineSet
Validated: 1
EndChar

StartChar: space
Encoding: 32 32 26
Width: 500
VWidth: 0
Flags: HW
LayerCount: 2
Fore
SplineSet
500 819 m 1
 100 0 l 1
 0 0 l 1
 400 819 l 1
 500 819 l 1
EndSplineSet
Validated: 1
EndChar

StartChar: at
Encoding: 64 64 27
Width: 4100
VWidth: 0
Flags: HW
LayerCount: 2
Fore
SplineSet
3300 400 m 0
 3300 455 3345 500 3400 500 c 0
 3455 500 3500 455 3500 400 c 0
 3500 345 3455 300 3400 300 c 0
 3345 300 3300 345 3300 400 c 0
2500 500 m 1
 3100 500 l 1
 3100 300 l 1
 2500 300 l 1
 2500 500 l 1
500 500 m 1
 1100 500 l 1
 1100 300 l 1
 500 300 l 1
 500 500 l 1
2100 400 m 0
 2100 455 2145 500 2200 500 c 0
 2255 500 2300 455 2300 400 c 0
 2300 345 2255 300 2200 300 c 0
 2145 300 2100 345 2100 400 c 0
100 400 m 0
 100 455 145 500 200 500 c 0
 255 500 300 455 300 400 c 0
 300 345 255 300 200 300 c 0
 145 300 100 345 100 400 c 0
4100 819 m 1
 3700 0 l 1
 3600 0 l 1
 4000 819 l 1
 4100 819 l 1
1300 500 m 1
 1900 500 l 1
 1900 300 l 1
 1300 300 l 1
 1300 500 l 1
EndSplineSet
Validated: 1
EndChar

StartChar: a
Encoding: 97 97 28
Width: 1700
VWidth: 0
Flags: HW
LayerCount: 2
Fore
SplineSet
500 500 m 1
 1100 500 l 1
 1100 300 l 1
 500 300 l 1
 500 500 l 1
100 400 m 0
 100 455 145 500 200 500 c 0
 255 500 300 455 300 400 c 0
 300 345 255 300 200 300 c 0
 145 300 100 345 100 400 c 0
1700 819 m 1
 1300 0 l 1
 1200 0 l 1
 1600 819 l 1
 1700 819 l 1
EndSplineSet
Validated: 1
EndChar

StartChar: b
Encoding: 98 98 29
Width: 2500
VWidth: 0
Flags: HW
LayerCount: 2
Fore
SplineSet
2500 819 m 1
 2100 0 l 1
 2000 0 l 1
 2400 819 l 1
 2500 819 l 1
1300 400 m 0
 1300 455 1345 500 1400 500 c 0
 1455 500 1500 455 1500 400 c 0
 1500 345 1455 300 1400 300 c 0
 1345 300 1300 345 1300 400 c 0
900 400 m 0
 900 455 945 500 1000 500 c 0
 1055 500 1100 455 1100 400 c 0
 1100 345 1055 300 1000 300 c 0
 945 300 900 345 900 400 c 0
100 500 m 1
 700 500 l 1
 700 300 l 1
 100 300 l 1
 100 500 l 1
1700 400 m 0
 1700 455 1745 500 1800 500 c 0
 1855 500 1900 455 1900 400 c 0
 1900 345 1855 300 1800 300 c 0
 1745 300 1700 345 1700 400 c 0
EndSplineSet
Validated: 1
EndChar

StartChar: c
Encoding: 99 99 30
Width: 2900
VWidth: 0
Flags: HW
LayerCount: 2
Fore
SplineSet
2900 819 m 1
 2500 0 l 1
 2400 0 l 1
 2800 819 l 1
 2900 819 l 1
2100 400 m 0
 2100 455 2145 500 2200 500 c 0
 2255 500 2300 455 2300 400 c 0
 2300 345 2255 300 2200 300 c 0
 2145 300 2100 345 2100 400 c 0
1300 500 m 1
 1900 500 l 1
 1900 300 l 1
 1300 300 l 1
 1300 500 l 1
900 400 m 0
 900 455 945 500 1000 500 c 0
 1055 500 1100 455 1100 400 c 0
 1100 345 1055 300 1000 300 c 0
 945 300 900 345 900 400 c 0
100 500 m 1
 700 500 l 1
 700 300 l 1
 100 300 l 1
 100 500 l 1
EndSplineSet
Validated: 1
EndChar

StartChar: d
Encoding: 100 100 31
Width: 2100
VWidth: 0
Flags: HW
LayerCount: 2
Fore
SplineSet
2100 819 m 1
 1700 0 l 1
 1600 0 l 1
 2000 819 l 1
 2100 819 l 1
1300 400 m 0
 1300 455 1345 500 1400 500 c 0
 1455 500 1500 455 1500 400 c 0
 1500 345 1455 300 1400 300 c 0
 1345 300 1300 345 1300 400 c 0
100 500 m 1
 700 500 l 1
 700 300 l 1
 100 300 l 1
 100 500 l 1
900 400 m 0
 900 455 945 500 1000 500 c 0
 1055 500 1100 455 1100 400 c 0
 1100 345 1055 300 1000 300 c 0
 945 300 900 345 900 400 c 0
EndSplineSet
Validated: 1
EndChar

StartChar: e
Encoding: 101 101 32
Width: 900
VWidth: 0
Flags: HW
LayerCount: 2
Fore
SplineSet
900 819 m 1
 500 0 l 1
 400 0 l 1
 800 819 l 1
 900 819 l 1
100 400 m 0
 100 455 145 500 200 500 c 0
 255 500 300 455 300 400 c 0
 300 345 255 300 200 300 c 0
 145 300 100 345 100 400 c 0
EndSplineSet
Validated: 1
EndChar

StartChar: f
Encoding: 102 102 33
Width: 2500
VWidth: 0
Flags: HW
LayerCount: 2
Fore
SplineSet
2500 819 m 1
 2100 0 l 1
 2000 0 l 1
 2400 819 l 1
 2500 819 l 1
500 400 m 0
 500 455 545 500 600 500 c 0
 655 500 700 455 700 400 c 0
 700 345 655 300 600 300 c 0
 545 300 500 345 500 400 c 0
100 400 m 0
 100 455 145 500 200 500 c 0
 255 500 300 455 300 400 c 0
 300 345 255 300 200 300 c 0
 145 300 100 345 100 400 c 0
900 500 m 1
 1500 500 l 1
 1500 300 l 1
 900 300 l 1
 900 500 l 1
1700 400 m 0
 1700 455 1745 500 1800 500 c 0
 1855 500 1900 455 1900 400 c 0
 1900 345 1855 300 1800 300 c 0
 1745 300 1700 345 1700 400 c 0
EndSplineSet
Validated: 1
EndChar

StartChar: g
Encoding: 103 103 34
Width: 2500
VWidth: 0
Flags: HW
LayerCount: 2
Fore
SplineSet
2500 819 m 1
 2100 0 l 1
 2000 0 l 1
 2400 819 l 1
 2500 819 l 1
900 500 m 1
 1500 500 l 1
 1500 300 l 1
 900 300 l 1
 900 500 l 1
100 500 m 1
 700 500 l 1
 700 300 l 1
 100 300 l 1
 100 500 l 1
1700 400 m 0
 1700 455 1745 500 1800 500 c 0
 1855 500 1900 455 1900 400 c 0
 1900 345 1855 300 1800 300 c 0
 1745 300 1700 345 1700 400 c 0
EndSplineSet
Validated: 1
EndChar

StartChar: h
Encoding: 104 104 35
Width: 2100
VWidth: 0
Flags: HW
LayerCount: 2
Fore
SplineSet
2100 819 m 1
 1700 0 l 1
 1600 0 l 1
 2000 819 l 1
 2100 819 l 1
1300 400 m 0
 1300 455 1345 500 1400 500 c 0
 1455 500 1500 455 1500 400 c 0
 1500 345 1455 300 1400 300 c 0
 1345 300 1300 345 1300 400 c 0
900 400 m 0
 900 455 945 500 1000 500 c 0
 1055 500 1100 455 1100 400 c 0
 1100 345 1055 300 1000 300 c 0
 945 300 900 345 900 400 c 0
500 400 m 0
 500 455 545 500 600 500 c 0
 655 500 700 455 700 400 c 0
 700 345 655 300 600 300 c 0
 545 300 500 345 500 400 c 0
100 400 m 0
 100 455 145 500 200 500 c 0
 255 500 300 455 300 400 c 0
 300 345 255 300 200 300 c 0
 145 300 100 345 100 400 c 0
EndSplineSet
Validated: 1
EndChar

StartChar: i
Encoding: 105 105 36
Width: 1300
VWidth: 0
Flags: HW
LayerCount: 2
Fore
SplineSet
1300 819 m 1
 900 0 l 1
 800 0 l 1
 1200 819 l 1
 1300 819 l 1
500 400 m 0
 500 455 545 500 600 500 c 0
 655 500 700 455 700 400 c 0
 700 345 655 300 600 300 c 0
 545 300 500 345 500 400 c 0
100 400 m 0
 100 455 145 500 200 500 c 0
 255 500 300 455 300 400 c 0
 300 345 255 300 200 300 c 0
 145 300 100 345 100 400 c 0
EndSplineSet
Validated: 1
EndChar

StartChar: j
Encoding: 106 106 37
Width: 3300
VWidth: 0
Flags: HW
LayerCount: 2
Fore
SplineSet
3300 819 m 1
 2900 0 l 1
 2800 0 l 1
 3200 819 l 1
 3300 819 l 1
2100 500 m 1
 2700 500 l 1
 2700 300 l 1
 2100 300 l 1
 2100 500 l 1
1300 500 m 1
 1900 500 l 1
 1900 300 l 1
 1300 300 l 1
 1300 500 l 1
500 500 m 1
 1100 500 l 1
 1100 300 l 1
 500 300 l 1
 500 500 l 1
100 400 m 0
 100 455 145 500 200 500 c 0
 255 500 300 455 300 400 c 0
 300 345 255 300 200 300 c 0
 145 300 100 345 100 400 c 0
EndSplineSet
Validated: 1
EndChar

StartChar: k
Encoding: 107 107 38
Width: 2500
VWidth: 0
Flags: HW
LayerCount: 2
Fore
SplineSet
2500 819 m 1
 2100 0 l 1
 2000 0 l 1
 2400 819 l 1
 2500 819 l 1
100 500 m 1
 700 500 l 1
 700 300 l 1
 100 300 l 1
 100 500 l 1
1300 500 m 1
 1900 500 l 1
 1900 300 l 1
 1300 300 l 1
 1300 500 l 1
900 400 m 0
 900 455 945 500 1000 500 c 0
 1055 500 1100 455 1100 400 c 0
 1100 345 1055 300 1000 300 c 0
 945 300 900 345 900 400 c 0
EndSplineSet
Validated: 1
EndChar

StartChar: l
Encoding: 108 108 39
Width: 2500
VWidth: 0
Flags: HW
LayerCount: 2
Fore
SplineSet
2500 819 m 1
 2100 0 l 1
 2000 0 l 1
 2400 819 l 1
 2500 819 l 1
1700 400 m 0
 1700 455 1745 500 1800 500 c 0
 1855 500 1900 455 1900 400 c 0
 1900 345 1855 300 1800 300 c 0
 1745 300 1700 345 1700 400 c 0
100 400 m 0
 100 455 145 500 200 500 c 0
 255 500 300 455 300 400 c 0
 300 345 255 300 200 300 c 0
 145 300 100 345 100 400 c 0
500 500 m 1
 1100 500 l 1
 1100 300 l 1
 500 300 l 1
 500 500 l 1
1300 400 m 0
 1300 455 1345 500 1400 500 c 0
 1455 500 1500 455 1500 400 c 0
 1500 345 1455 300 1400 300 c 0
 1345 300 1300 345 1300 400 c 0
EndSplineSet
Validated: 1
EndChar

StartChar: m
Encoding: 109 109 40
Width: 2100
VWidth: 0
Flags: HW
LayerCount: 2
Fore
SplineSet
2100 819 m 1
 1700 0 l 1
 1600 0 l 1
 2000 819 l 1
 2100 819 l 1
900 500 m 1
 1500 500 l 1
 1500 300 l 1
 900 300 l 1
 900 500 l 1
100 500 m 1
 700 500 l 1
 700 300 l 1
 100 300 l 1
 100 500 l 1
EndSplineSet
Validated: 1
EndChar

StartChar: n
Encoding: 110 110 41
Width: 1700
VWidth: 0
Flags: HW
LayerCount: 2
Fore
SplineSet
1700 819 m 1
 1300 0 l 1
 1200 0 l 1
 1600 819 l 1
 1700 819 l 1
100 500 m 1
 700 500 l 1
 700 300 l 1
 100 300 l 1
 100 500 l 1
900 400 m 0
 900 455 945 500 1000 500 c 0
 1055 500 1100 455 1100 400 c 0
 1100 345 1055 300 1000 300 c 0
 945 300 900 345 900 400 c 0
EndSplineSet
Validated: 1
EndChar

StartChar: o
Encoding: 111 111 42
Width: 2900
VWidth: 0
Flags: HW
LayerCount: 2
Fore
SplineSet
2900 819 m 1
 2500 0 l 1
 2400 0 l 1
 2800 819 l 1
 2900 819 l 1
1700 500 m 1
 2300 500 l 1
 2300 300 l 1
 1700 300 l 1
 1700 500 l 1
900 500 m 1
 1500 500 l 1
 1500 300 l 1
 900 300 l 1
 900 500 l 1
100 500 m 1
 700 500 l 1
 700 300 l 1
 100 300 l 1
 100 500 l 1
EndSplineSet
Validated: 1
EndChar

StartChar: p
Encoding: 112 112 43
Width: 2900
VWidth: 0
Flags: HW
LayerCount: 2
Fore
SplineSet
2900 819 m 1
 2500 0 l 1
 2400 0 l 1
 2800 819 l 1
 2900 819 l 1
2100 400 m 0
 2100 455 2145 500 2200 500 c 0
 2255 500 2300 455 2300 400 c 0
 2300 345 2255 300 2200 300 c 0
 2145 300 2100 345 2100 400 c 0
1300 500 m 1
 1900 500 l 1
 1900 300 l 1
 1300 300 l 1
 1300 500 l 1
500 500 m 1
 1100 500 l 1
 1100 300 l 1
 500 300 l 1
 500 500 l 1
100 400 m 0
 100 455 145 500 200 500 c 0
 255 500 300 455 300 400 c 0
 300 345 255 300 200 300 c 0
 145 300 100 345 100 400 c 0
EndSplineSet
Validated: 1
EndChar

StartChar: q
Encoding: 113 113 44
Width: 3300
VWidth: 0
Flags: HW
LayerCount: 2
Fore
SplineSet
3300 819 m 1
 2900 0 l 1
 2800 0 l 1
 3200 819 l 1
 3300 819 l 1
2100 500 m 1
 2700 500 l 1
 2700 300 l 1
 2100 300 l 1
 2100 500 l 1
900 500 m 1
 1500 500 l 1
 1500 300 l 1
 900 300 l 1
 900 500 l 1
100 500 m 1
 700 500 l 1
 700 300 l 1
 100 300 l 1
 100 500 l 1
1700 400 m 0
 1700 455 1745 500 1800 500 c 0
 1855 500 1900 455 1900 400 c 0
 1900 345 1855 300 1800 300 c 0
 1745 300 1700 345 1700 400 c 0
EndSplineSet
Validated: 1
EndChar

StartChar: r
Encoding: 114 114 45
Width: 2100
VWidth: 0
Flags: HW
LayerCount: 2
Fore
SplineSet
2100 819 m 1
 1700 0 l 1
 1600 0 l 1
 2000 819 l 1
 2100 819 l 1
1300 400 m 0
 1300 455 1345 500 1400 500 c 0
 1455 500 1500 455 1500 400 c 0
 1500 345 1455 300 1400 300 c 0
 1345 300 1300 345 1300 400 c 0
500 500 m 1
 1100 500 l 1
 1100 300 l 1
 500 300 l 1
 500 500 l 1
100 400 m 0
 100 455 145 500 200 500 c 0
 255 500 300 455 300 400 c 0
 300 345 255 300 200 300 c 0
 145 300 100 345 100 400 c 0
EndSplineSet
Validated: 1
EndChar

StartChar: s
Encoding: 115 115 46
Width: 1700
VWidth: 0
Flags: HW
LayerCount: 2
Fore
SplineSet
1700 819 m 1
 1300 0 l 1
 1200 0 l 1
 1600 819 l 1
 1700 819 l 1
900 400 m 0
 900 455 945 500 1000 500 c 0
 1055 500 1100 455 1100 400 c 0
 1100 345 1055 300 1000 300 c 0
 945 300 900 345 900 400 c 0
500 400 m 0
 500 455 545 500 600 500 c 0
 655 500 700 455 700 400 c 0
 700 345 655 300 600 300 c 0
 545 300 500 345 500 400 c 0
100 400 m 0
 100 455 145 500 200 500 c 0
 255 500 300 455 300 400 c 0
 300 345 255 300 200 300 c 0
 145 300 100 345 100 400 c 0
EndSplineSet
Validated: 1
EndChar

StartChar: t
Encoding: 116 116 47
Width: 1300
VWidth: 0
Flags: HW
LayerCount: 2
Fore
SplineSet
1300 819 m 1
 900 0 l 1
 800 0 l 1
 1200 819 l 1
 1300 819 l 1
100 500 m 1
 700 500 l 1
 700 300 l 1
 100 300 l 1
 100 500 l 1
EndSplineSet
Validated: 1
EndChar

StartChar: u
Encoding: 117 117 48
Width: 2100
VWidth: 0
Flags: HW
LayerCount: 2
Fore
SplineSet
2100 819 m 1
 1700 0 l 1
 1600 0 l 1
 2000 819 l 1
 2100 819 l 1
500 400 m 0
 500 455 545 500 600 500 c 0
 655 500 700 455 700 400 c 0
 700 345 655 300 600 300 c 0
 545 300 500 345 500 400 c 0
900 500 m 1
 1500 500 l 1
 1500 300 l 1
 900 300 l 1
 900 500 l 1
100 400 m 0
 100 455 145 500 200 500 c 0
 255 500 300 455 300 400 c 0
 300 345 255 300 200 300 c 0
 145 300 100 345 100 400 c 0
EndSplineSet
Validated: 1
EndChar

StartChar: v
Encoding: 118 118 49
Width: 2500
VWidth: 0
Flags: HW
LayerCount: 2
Fore
SplineSet
2500 819 m 1
 2100 0 l 1
 2000 0 l 1
 2400 819 l 1
 2500 819 l 1
500 400 m 0
 500 455 545 500 600 500 c 0
 655 500 700 455 700 400 c 0
 700 345 655 300 600 300 c 0
 545 300 500 345 500 400 c 0
900 400 m 0
 900 455 945 500 1000 500 c 0
 1055 500 1100 455 1100 400 c 0
 1100 345 1055 300 1000 300 c 0
 945 300 900 345 900 400 c 0
1300 500 m 1
 1900 500 l 1
 1900 300 l 1
 1300 300 l 1
 1300 500 l 1
100 400 m 0
 100 455 145 500 200 500 c 0
 255 500 300 455 300 400 c 0
 300 345 255 300 200 300 c 0
 145 300 100 345 100 400 c 0
EndSplineSet
Validated: 1
EndChar

StartChar: w
Encoding: 119 119 50
Width: 2500
VWidth: 0
Flags: HW
LayerCount: 2
Fore
SplineSet
2500 819 m 1
 2100 0 l 1
 2000 0 l 1
 2400 819 l 1
 2500 819 l 1
1300 500 m 1
 1900 500 l 1
 1900 300 l 1
 1300 300 l 1
 1300 500 l 1
500 500 m 1
 1100 500 l 1
 1100 300 l 1
 500 300 l 1
 500 500 l 1
100 400 m 0
 100 455 145 500 200 500 c 0
 255 500 300 455 300 400 c 0
 300 345 255 300 200 300 c 0
 145 300 100 345 100 400 c 0
EndSplineSet
Validated: 1
EndChar

StartChar: x
Encoding: 120 120 51
Width: 2900
VWidth: 0
Flags: HW
LayerCount: 2
Fore
SplineSet
2900 819 m 1
 2500 0 l 1
 2400 0 l 1
 2800 819 l 1
 2900 819 l 1
900 400 m 0
 900 455 945 500 1000 500 c 0
 1055 500 1100 455 1100 400 c 0
 1100 345 1055 300 1000 300 c 0
 945 300 900 345 900 400 c 0
100 500 m 1
 700 500 l 1
 700 300 l 1
 100 300 l 1
 100 500 l 1
1700 500 m 1
 2300 500 l 1
 2300 300 l 1
 1700 300 l 1
 1700 500 l 1
1300 400 m 0
 1300 455 1345 500 1400 500 c 0
 1455 500 1500 455 1500 400 c 0
 1500 345 1455 300 1400 300 c 0
 1345 300 1300 345 1300 400 c 0
EndSplineSet
Validated: 1
EndChar

StartChar: y
Encoding: 121 121 52
Width: 3300
VWidth: 0
Flags: HW
LayerCount: 2
Fore
SplineSet
3300 819 m 1
 2900 0 l 1
 2800 0 l 1
 3200 819 l 1
 3300 819 l 1
2100 500 m 1
 2700 500 l 1
 2700 300 l 1
 2100 300 l 1
 2100 500 l 1
900 400 m 0
 900 455 945 500 1000 500 c 0
 1055 500 1100 455 1100 400 c 0
 1100 345 1055 300 1000 300 c 0
 945 300 900 345 900 400 c 0
100 500 m 1
 700 500 l 1
 700 300 l 1
 100 300 l 1
 100 500 l 1
1300 500 m 1
 1900 500 l 1
 1900 300 l 1
 1300 300 l 1
 1300 500 l 1
EndSplineSet
Validated: 1
EndChar

StartChar: z
Encoding: 122 122 53
Width: 2900
VWidth: 0
Flags: HW
LayerCount: 2
Fore
SplineSet
2900 819 m 1
 2500 0 l 1
 2400 0 l 1
 2800 819 l 1
 2900 819 l 1
2100 400 m 0
 2100 455 2145 500 2200 500 c 0
 2255 500 2300 455 2300 400 c 0
 2300 345 2255 300 2200 300 c 0
 2145 300 2100 345 2100 400 c 0
100 500 m 1
 700 500 l 1
 700 300 l 1
 100 300 l 1
 100 500 l 1
900 500 m 1
 1500 500 l 1
 1500 300 l 1
 900 300 l 1
 900 500 l 1
1700 400 m 0
 1700 455 1745 500 1800 500 c 0
 1855 500 1900 455 1900 400 c 0
 1900 345 1855 300 1800 300 c 0
 1745 300 1700 345 1700 400 c 0
EndSplineSet
Validated: 1
EndChar

StartChar: period
Encoding: 46 46 54
Width: 1000
VWidth: 0
Flags: HW
LayerCount: 2
Fore
SplineSet
1000 819 m 1
 600 0 l 1
 500 0 l 1
 900 819 l 1
 1000 819 l 1
500 819 m 1
 100 0 l 1
 0 0 l 1
 400 819 l 1
 500 819 l 1
EndSplineSet
Validated: 1
EndChar

StartChar: zero
Encoding: 48 48 55
Width: 4500
VWidth: 0
Flags: HW
LayerCount: 2
Fore
SplineSet
100 500 m 1
 700 500 l 1
 700 300 l 1
 100 300 l 1
 100 500 l 1
3300 500 m 1
 3900 500 l 1
 3900 300 l 1
 3300 300 l 1
 3300 500 l 1
2500 500 m 1
 3100 500 l 1
 3100 300 l 1
 2500 300 l 1
 2500 500 l 1
1700 500 m 1
 2300 500 l 1
 2300 300 l 1
 1700 300 l 1
 1700 500 l 1
4500 819 m 1
 4100 0 l 1
 4000 0 l 1
 4400 819 l 1
 4500 819 l 1
900 500 m 1
 1500 500 l 1
 1500 300 l 1
 900 300 l 1
 900 500 l 1
EndSplineSet
Validated: 1
EndChar

StartChar: one
Encoding: 49 49 56
Width: 4100
VWidth: 0
Flags: HW
LayerCount: 2
Fore
SplineSet
1300 500 m 1
 1900 500 l 1
 1900 300 l 1
 1300 300 l 1
 1300 500 l 1
500 500 m 1
 1100 500 l 1
 1100 300 l 1
 500 300 l 1
 500 500 l 1
2900 500 m 1
 3500 500 l 1
 3500 300 l 1
 2900 300 l 1
 2900 500 l 1
4100 819 m 1
 3700 0 l 1
 3600 0 l 1
 4000 819 l 1
 4100 819 l 1
2100 500 m 1
 2700 500 l 1
 2700 300 l 1
 2100 300 l 1
 2100 500 l 1
100 400 m 0
 100 455 145 500 200 500 c 0
 255 500 300 455 300 400 c 0
 300 345 255 300 200 300 c 0
 145 300 100 345 100 400 c 0
EndSplineSet
Validated: 1
EndChar

StartChar: two
Encoding: 50 50 57
Width: 3700
VWidth: 0
Flags: HW
LayerCount: 2
Fore
SplineSet
2500 500 m 1
 3100 500 l 1
 3100 300 l 1
 2500 300 l 1
 2500 500 l 1
900 500 m 1
 1500 500 l 1
 1500 300 l 1
 900 300 l 1
 900 500 l 1
100 400 m 0
 100 455 145 500 200 500 c 0
 255 500 300 455 300 400 c 0
 300 345 255 300 200 300 c 0
 145 300 100 345 100 400 c 0
500 400 m 0
 500 455 545 500 600 500 c 0
 655 500 700 455 700 400 c 0
 700 345 655 300 600 300 c 0
 545 300 500 345 500 400 c 0
3700 819 m 1
 3300 0 l 1
 3200 0 l 1
 3600 819 l 1
 3700 819 l 1
1700 500 m 1
 2300 500 l 1
 2300 300 l 1
 1700 300 l 1
 1700 500 l 1
EndSplineSet
Validated: 1
EndChar

StartChar: three
Encoding: 51 51 58
Width: 3300
VWidth: 0
Flags: HW
LayerCount: 2
Fore
SplineSet
1300 500 m 1
 1900 500 l 1
 1900 300 l 1
 1300 300 l 1
 1300 500 l 1
900 400 m 0
 900 455 945 500 1000 500 c 0
 1055 500 1100 455 1100 400 c 0
 1100 345 1055 300 1000 300 c 0
 945 300 900 345 900 400 c 0
500 400 m 0
 500 455 545 500 600 500 c 0
 655 500 700 455 700 400 c 0
 700 345 655 300 600 300 c 0
 545 300 500 345 500 400 c 0
3300 819 m 1
 2900 0 l 1
 2800 0 l 1
 3200 819 l 1
 3300 819 l 1
2100 500 m 1
 2700 500 l 1
 2700 300 l 1
 2100 300 l 1
 2100 500 l 1
100 400 m 0
 100 455 145 500 200 500 c 0
 255 500 300 455 300 400 c 0
 300 345 255 300 200 300 c 0
 145 300 100 345 100 400 c 0
EndSplineSet
Validated: 1
EndChar

StartChar: four
Encoding: 52 52 59
Width: 2900
VWidth: 0
Flags: HW
LayerCount: 2
Fore
SplineSet
1300 400 m 0
 1300 455 1345 500 1400 500 c 0
 1455 500 1500 455 1500 400 c 0
 1500 345 1455 300 1400 300 c 0
 1345 300 1300 345 1300 400 c 0
900 400 m 0
 900 455 945 500 1000 500 c 0
 1055 500 1100 455 1100 400 c 0
 1100 345 1055 300 1000 300 c 0
 945 300 900 345 900 400 c 0
500 400 m 0
 500 455 545 500 600 500 c 0
 655 500 700 455 700 400 c 0
 700 345 655 300 600 300 c 0
 545 300 500 345 500 400 c 0
2900 819 m 1
 2500 0 l 1
 2400 0 l 1
 2800 819 l 1
 2900 819 l 1
1700 500 m 1
 2300 500 l 1
 2300 300 l 1
 1700 300 l 1
 1700 500 l 1
100 400 m 0
 100 455 145 500 200 500 c 0
 255 500 300 455 300 400 c 0
 300 345 255 300 200 300 c 0
 145 300 100 345 100 400 c 0
EndSplineSet
Validated: 1
EndChar

StartChar: five
Encoding: 53 53 60
Width: 2499
VWidth: 0
Flags: HW
LayerCount: 2
Fore
SplineSet
1700 400 m 0
 1700 455 1745 500 1800 500 c 0
 1855 500 1900 455 1900 400 c 0
 1900 345 1855 300 1800 300 c 0
 1745 300 1700 345 1700 400 c 0
1300 400 m 0
 1300 455 1345 500 1400 500 c 0
 1455 500 1500 455 1500 400 c 0
 1500 345 1455 300 1400 300 c 0
 1345 300 1300 345 1300 400 c 0
900 400 m 0
 900 455 945 500 1000 500 c 0
 1055 500 1100 455 1100 400 c 0
 1100 345 1055 300 1000 300 c 0
 945 300 900 345 900 400 c 0
500 400 m 0
 500 455 545 500 600 500 c 0
 655 500 700 455 700 400 c 0
 700 345 655 300 600 300 c 0
 545 300 500 345 500 400 c 0
2499 819 m 1
 2099 0 l 1
 1999 0 l 1
 2399 819 l 1
 2499 819 l 1
100 400 m 0
 100 455 145 500 200 500 c 0
 255 500 300 455 300 400 c 0
 300 345 255 300 200 300 c 0
 145 300 100 345 100 400 c 0
EndSplineSet
Validated: 1
EndChar

StartChar: six
Encoding: 54 54 61
Width: 2900
VWidth: 0
Flags: HW
LayerCount: 2
Fore
SplineSet
2100 400 m 0
 2100 455 2145 500 2200 500 c 0
 2255 500 2300 455 2300 400 c 0
 2300 345 2255 300 2200 300 c 0
 2145 300 2100 345 2100 400 c 0
1700 400 m 0
 1700 455 1745 500 1800 500 c 0
 1855 500 1900 455 1900 400 c 0
 1900 345 1855 300 1800 300 c 0
 1745 300 1700 345 1700 400 c 0
1300 400 m 0
 1300 455 1345 500 1400 500 c 0
 1455 500 1500 455 1500 400 c 0
 1500 345 1455 300 1400 300 c 0
 1345 300 1300 345 1300 400 c 0
2900 819 m 1
 2500 0 l 1
 2400 0 l 1
 2800 819 l 1
 2900 819 l 1
100 500 m 1
 700 500 l 1
 700 300 l 1
 100 300 l 1
 100 500 l 1
900 400 m 0
 900 455 945 500 1000 500 c 0
 1055 500 1100 455 1100 400 c 0
 1100 345 1055 300 1000 300 c 0
 945 300 900 345 900 400 c 0
EndSplineSet
Validated: 1
EndChar

StartChar: seven
Encoding: 55 55 62
Width: 3300
VWidth: 0
Flags: HW
LayerCount: 2
Fore
SplineSet
1700 400 m 0
 1700 455 1745 500 1800 500 c 0
 1855 500 1900 455 1900 400 c 0
 1900 345 1855 300 1800 300 c 0
 1745 300 1700 345 1700 400 c 0
2100 400 m 0
 2100 455 2145 500 2200 500 c 0
 2255 500 2300 455 2300 400 c 0
 2300 345 2255 300 2200 300 c 0
 2145 300 2100 345 2100 400 c 0
900 500 m 1
 1500 500 l 1
 1500 300 l 1
 900 300 l 1
 900 500 l 1
3300 819 m 1
 2900 0 l 1
 2800 0 l 1
 3200 819 l 1
 3300 819 l 1
100 500 m 1
 700 500 l 1
 700 300 l 1
 100 300 l 1
 100 500 l 1
2500 400 m 0
 2500 455 2545 500 2600 500 c 0
 2655 500 2700 455 2700 400 c 0
 2700 345 2655 300 2600 300 c 0
 2545 300 2500 345 2500 400 c 0
EndSplineSet
Validated: 1
EndChar

StartChar: eight
Encoding: 56 56 63
Width: 3700
VWidth: 0
Flags: HW
LayerCount: 2
Fore
SplineSet
2500 400 m 0
 2500 455 2545 500 2600 500 c 0
 2655 500 2700 455 2700 400 c 0
 2700 345 2655 300 2600 300 c 0
 2545 300 2500 345 2500 400 c 0
900 500 m 1
 1500 500 l 1
 1500 300 l 1
 900 300 l 1
 900 500 l 1
3700 819 m 1
 3300 0 l 1
 3200 0 l 1
 3600 819 l 1
 3700 819 l 1
100 500 m 1
 700 500 l 1
 700 300 l 1
 100 300 l 1
 100 500 l 1
2900 400 m 0
 2900 455 2945 500 3000 500 c 0
 3055 500 3100 455 3100 400 c 0
 3100 345 3055 300 3000 300 c 0
 2945 300 2900 345 2900 400 c 0
1700 500 m 1
 2300 500 l 1
 2300 300 l 1
 1700 300 l 1
 1700 500 l 1
EndSplineSet
Validated: 1
EndChar

StartChar: nine
Encoding: 57 57 64
Width: 4104
VWidth: 0
Flags: HW
LayerCount: 2
Fore
SplineSet
101 500 m 1
 701 500 l 1
 701 300 l 1
 101 300 l 1
 101 500 l 1
1702 500 m 1
 2302 500 l 1
 2302 300 l 1
 1702 300 l 1
 1702 500 l 1
4104 819 m 1
 3704 0 l 1
 3604 0 l 1
 4004 819 l 1
 4104 819 l 1
902 500 m 1
 1502 500 l 1
 1502 300 l 1
 902 300 l 1
 902 500 l 1
3304 400 m 0
 3304 455 3349 500 3404 500 c 0
 3459 500 3504 455 3504 400 c 0
 3504 345 3459 300 3404 300 c 0
 3349 300 3304 345 3304 400 c 0
2502 500 m 1
 3102 500 l 1
 3102 300 l 1
 2502 300 l 1
 2502 500 l 1
EndSplineSet
Validated: 1
EndChar

StartChar: uni0000
Encoding: 0 0 65
Width: 1653
VWidth: 0
Flags: HW
LayerCount: 2
Fore
SplineSet
1100 400 m 1
 1100 300 l 1
 1100 200 l 1
 1200 0 l 1
 1100 400 l 1
1700 819 m 1
 1600 819 l 1
 1200 0 l 1
 1300 0 l 1
 1700 819 l 1
941 1131 m 1
 941 931 l 1
 1541 931 l 1
 1541 1131 l 1
 941 1131 l 1
741 1131 m 1
 841 1131 l 1
 941 1131 l 1
 941 931 l 1
 741 1131 l 1
245 1028 m 0
 245 1083 290 1128 345 1128 c 0
 400 1128 445 1083 445 1028 c 0
 445 973 400 928 345 928 c 0
 290 928 245 973 245 1028 c 0
45 1128 m 1
 145 1128 l 1
 445 1128 l 1
 245 928 l 1
 45 1128 l 1
EndSplineSet
Validated: 5
EndChar

StartChar: ampersand
Encoding: 38 38 66
Width: 2900
VWidth: 0
Flags: HW
LayerCount: 2
Fore
SplineSet
100 400 m 0
 100 455 145 500 200 500 c 0
 255 500 300 455 300 400 c 0
 300 345 255 300 200 300 c 0
 145 300 100 345 100 400 c 0
2100 400 m 0
 2100 455 2145 500 2200 500 c 0
 2255 500 2300 455 2300 400 c 0
 2300 345 2255 300 2200 300 c 0
 2145 300 2100 345 2100 400 c 0
1300 400 m 0
 1300 455 1345 500 1400 500 c 0
 1455 500 1500 455 1500 400 c 0
 1500 345 1455 300 1400 300 c 0
 1345 300 1300 345 1300 400 c 0
2900 819 m 1
 2500 0 l 1
 2400 0 l 1
 2800 819 l 1
 2900 819 l 1
500 500 m 1
 1100 500 l 1
 1100 300 l 1
 500 300 l 1
 500 500 l 1
1700 400 m 0
 1700 455 1745 500 1800 500 c 0
 1855 500 1900 455 1900 400 c 0
 1900 345 1855 300 1800 300 c 0
 1745 300 1700 345 1700 400 c 0
EndSplineSet
Validated: 1
EndChar

StartChar: question
Encoding: 63 63 67
Width: 3700
VWidth: 0
Flags: HW
LayerCount: 2
Fore
SplineSet
2500 400 m 0
 2500 455 2545 500 2600 500 c 0
 2655 500 2700 455 2700 400 c 0
 2700 345 2655 300 2600 300 c 0
 2545 300 2500 345 2500 400 c 0
2900 400 m 0
 2900 455 2945 500 3000 500 c 0
 3055 500 3100 455 3100 400 c 0
 3100 345 3055 300 3000 300 c 0
 2945 300 2900 345 2900 400 c 0
1700 500 m 1
 2300 500 l 1
 2300 300 l 1
 1700 300 l 1
 1700 500 l 1
100 400 m 0
 100 455 145 500 200 500 c 0
 255 500 300 455 300 400 c 0
 300 345 255 300 200 300 c 0
 145 300 100 345 100 400 c 0
3700 819 m 1
 3300 0 l 1
 3200 0 l 1
 3600 819 l 1
 3700 819 l 1
900 500 m 1
 1500 500 l 1
 1500 300 l 1
 900 300 l 1
 900 500 l 1
500 400 m 0
 500 455 545 500 600 500 c 0
 655 500 700 455 700 400 c 0
 700 345 655 300 600 300 c 0
 545 300 500 345 500 400 c 0
EndSplineSet
Validated: 1
EndChar

StartChar: exclam
Encoding: 33 33 68
Width: 4500
VWidth: 0
Flags: HW
LayerCount: 2
Fore
SplineSet
1300 500 m 1
 1900 500 l 1
 1900 300 l 1
 1300 300 l 1
 1300 500 l 1
2100 400 m 0
 2100 455 2145 500 2200 500 c 0
 2255 500 2300 455 2300 400 c 0
 2300 345 2255 300 2200 300 c 0
 2145 300 2100 345 2100 400 c 0
2500 500 m 1
 3100 500 l 1
 3100 300 l 1
 2500 300 l 1
 2500 500 l 1
3300 500 m 1
 3900 500 l 1
 3900 300 l 1
 3300 300 l 1
 3300 500 l 1
4500 819 m 1
 4100 0 l 1
 4000 0 l 1
 4400 819 l 1
 4500 819 l 1
100 500 m 1
 700 500 l 1
 700 300 l 1
 100 300 l 1
 100 500 l 1
900 400 m 0
 900 455 945 500 1000 500 c 0
 1055 500 1100 455 1100 400 c 0
 1100 345 1055 300 1000 300 c 0
 945 300 900 345 900 400 c 0
EndSplineSet
Validated: 1
EndChar
